<svg width="20" height="20" viewBox="0 0 20 20" fill="none" xmlns="http://www.w3.org/2000/svg">
<g clip-path="url(#clip0_6485_2720)">
<path d="M10.0025 0H9.9975C4.48375 0 0 4.485 0 10C0 12.1875 0.705 14.215 1.90375 15.8612L0.6575 19.5763L4.50125 18.3475C6.0825 19.395 7.96875 20 10.0025 20C15.5162 20 20 15.5138 20 10C20 4.48625 15.5162 0 10.0025 0Z" fill="#449C47"/>
<path d="M15.8207 14.1212C15.5795 14.8025 14.622 15.3675 13.8582 15.5325C13.3357 15.6437 12.6532 15.7325 10.3557 14.78C7.41695 13.5625 5.52445 10.5762 5.37695 10.3825C5.2357 10.1887 4.18945 8.80123 4.18945 7.36623C4.18945 5.93123 4.9182 5.23248 5.21195 4.93248C5.4532 4.68623 5.85195 4.57373 6.23445 4.57373C6.3582 4.57373 6.46945 4.57998 6.56945 4.58498C6.8632 4.59748 7.0107 4.61498 7.20445 5.07873C7.4457 5.65998 8.0332 7.09498 8.1032 7.24248C8.17445 7.38998 8.2457 7.58998 8.1457 7.78373C8.05195 7.98373 7.96945 8.07248 7.82195 8.24248C7.67445 8.41248 7.53445 8.54248 7.38695 8.72498C7.25195 8.88373 7.09945 9.05373 7.26945 9.34748C7.43945 9.63498 8.02695 10.5937 8.89195 11.3637C10.0082 12.3575 10.9132 12.675 11.237 12.81C11.4782 12.91 11.7657 12.8862 11.942 12.6987C12.1657 12.4575 12.442 12.0575 12.7232 11.6637C12.9232 11.3812 13.1757 11.3462 13.4407 11.4462C13.7107 11.54 15.1395 12.2462 15.4332 12.3925C15.727 12.54 15.9207 12.61 15.992 12.7337C16.062 12.8575 16.062 13.4387 15.8207 14.1212Z" fill="white"/>
</g>
<defs>
<clipPath id="clip0_6485_2720">
<rect width="20" height="20" fill="white"/>
</clipPath>
</defs>
</svg>
